{"title":"Chashme Baddoor 2013 Audio Cleaned DVDScr XviD 1CD","uid":8350713,"size":737977893,"categoryP":"video","categoryS":"movies","magnet":"?xt=urn:btih:dc81cc751e9aa515d1f15dd069efebf31e2b0980&amp;dn=Chashme+Baddoor+2013+Audio+Cleaned+DVDScr+XviD+1CD&amp;tr=udp%3A%2F%2Ftracker.openbittorrent.com%3A80&amp;tr=udp%3A%2F%2Fopen.demonii.com%3A1337&amp;tr=udp%3A%2F%2Ftracker.coppersurfer.tk%3A6969&amp;tr=udp%3A%2F%2Fexodus.desync.com%3A6969","seeders":1,"leechers":0,"uploader":"Bclassics","files":10,"time":1365293832,"description":"\n-: Cover :- \n\n\n  &lt;a href=&quot;\nhttp://desibbrg.org/images/39488563034700070980.jpg&quot; rel=&quot;nofollow&quot; target=&quot;_NEW&quot;&gt;\nhttp://desibbrg.org/images/39488563034700070980.jpg&lt;/a&gt;\n\n\n-: Screens :-\n\n\n    &lt;a href=&quot;\thttp://desibbrg.org/images/33130005501978078193.png&quot; rel=&quot;nofollow&quot; target=&quot;_NEW&quot;&gt;\thttp://desibbrg.org/images/33130005501978078193.png&lt;/a&gt;\n    &lt;a href=&quot;\thttp://desibbrg.org/images/84906306684194385452.png&quot; rel=&quot;nofollow&quot; target=&quot;_NEW&quot;&gt;\thttp://desibbrg.org/images/84906306684194385452.png&lt;/a&gt;\n    &lt;a href=&quot;\thttp://desibbrg.org/images/24441371157510200912.png&quot; rel=&quot;nofollow&quot; target=&quot;_NEW&quot;&gt;\thttp://desibbrg.org/images/24441371157510200912.png&lt;/a&gt;\n    &lt;a href=&quot;\thttp://desibbrg.org/images/09788002654453152797.png&quot; rel=&quot;nofollow&quot; target=&quot;_NEW&quot;&gt;\thttp://desibbrg.org/images/09788002654453152797.png&lt;/a&gt;\n    &lt;a href=&quot;\thttp://desibbrg.org/images/39016406214561836674.png&quot; rel=&quot;nofollow&quot; target=&quot;_NEW&quot;&gt;\thttp://desibbrg.org/images/39016406214561836674.png&lt;/a&gt;\n    &lt;a href=&quot;\thttp://desibbrg.org/images/64465959373421766728.png&quot; rel=&quot;nofollow&quot; target=&quot;_NEW&quot;&gt;\thttp://desibbrg.org/images/64465959373421766728.png&lt;/a&gt;\n    &lt;a href=&quot;\thttp://desibbrg.org/images/64421599809080423081.png&quot; rel=&quot;nofollow&quot; target=&quot;_NEW&quot;&gt;\thttp://desibbrg.org/images/64421599809080423081.png&lt;/a&gt;\n    &lt;a href=&quot;\thttp://desibbrg.org/images/55051775979670591173.png&quot; rel=&quot;nofollow&quot; target=&quot;_NEW&quot;&gt;\thttp://desibbrg.org/images/55051775979670591173.png&lt;/a&gt;\n\n\n-: Info :-  \n\n\n\nGeneral\n\nFormat                           : AVI\nFormat/Info                      : Audio Video Interleave\nFile size                        : 697 MiB\nDuration                         : 1h 52mn\nOverall bit rate                 : 866 Kbps\nWriting application              : VirtualDubMod 1.5.10.2 (build 2540/release)\nWriting library                  : VirtualDubMod build 2540/release\n\nVideo\nID                               : 0\nFormat                           : MPEG-4 Visual\nFormat profile                   : Advanced Simple@L5\nFormat settings, BVOP            : Yes\nFormat settings, QPel            : No\nFormat settings, GMC             : No warppoints\nFormat settings, Matrix          : Default (H.263)\nCodec ID                         : XVID\nCodec ID/Hint                    : XviD\nDuration                         : 1h 52mn\nBit rate                         : 776 Kbps\nWidth                            : 624 pixels\nHeight                           : 288 pixels\nDisplay aspect ratio             : 2.2:1\nFrame rate                       : 25.000 fps\nColor space                      : YUV\nChroma subsampling               : 4:2:0\nBit depth                        : 8 bits\nScan type                        : Progressive\nBits/(Pixel*Frame)               : 0.173\nStream size                      : 624 MiB (90%)\nWriting library                  : XviD 1.2.1 (UTC 2008-12-04)\n\nAudio\nID                               : 1\nFormat                           : MPEG Audio\nFormat version                   : Version 1\nFormat profile                   : Layer 3\nMode                             : Joint stereo\nMode extension                   : MS Stereo\nCodec ID                         : 55\nCodec ID/Hint                    : MP3\nDuration                         : 1h 52mn\nBit rate mode                    : Constant\nBit rate                         : 80.0 Kbps\nChannel(s)                       : 2 channels\nSampling rate                    : 32.0 KHz\nStream size                      : 64.4 MiB (9%)\nAlignment                        : Aligned on interleaves\nInterleave, duration             : 40 ms (1.00 video frame)\nInterleave, preload duration     : 504 ms\n\n\n\n  &lt;a href=&quot;\nhttp://www.imdb.com/title/tt2229848/&quot; rel=&quot;nofollow&quot; target=&quot;_NEW&quot;&gt;\nhttp://www.imdb.com/title/tt2229848/&lt;/a&gt;\n\n    Banner\n    Viacom 18 Motion Pictures\n\n    Status\n    Released\n\n    Release Date\n    5 Apr 2013\n\n    Genre\n    Comedy\n\n    Star Cast\n    Ali Zafar\n    Siddharth\n    Divyendu Sharma\n    Tapsee Pannu\n    Rishi Kapoor\n    Juhi Chawla\n    Anupam Kher\n    Sonu Nigam\n    Lilette Dubey\n    Bharti Achrekar\n    Ayaz Khan\n\n    Background Music\n    Sandeep Shirodkar\n\n    Choreographers\n    Ganesh Acharya\n\n    Costume Designers\n    Niharika Khan\n\n    Publicity Pro\n    Parag Desai\n    Universal Communications\n\n    Censor Details:\n\n    Censor Dates\n    4 Mar 2013\n\n    Reels\n    Not Available.\n\n    Length in metres\n    0.0\n\nMusic Director\n\n    Sajid\n    Wajid\n\nColor\nC\nLanguage\nHindi\nDirector\n\n    David Dhawan\n\nSingers\n\n    Sonu Nigam\n    Ali Zafar\n    Shreya Ghoshal\n    Mika Singh\n    Wajid\n    Neuman Pinto\n\nLyricist\n\n    Jalees Sherwani\n    Neelesh Misra\n    Kausar Munir\n\nEditor\n\n    Nitin Rokade\n\nCinematography\n\n    Sanjay F Gupta\n\nProduction Designers\n\n    Shailesh Mahadik\n\nAction\n\n    Mahender Verma\n\nScreenplay\n\n    Renuka Kunzru\n\nDialogue\n\n    Sajid 1\n    Farhad\n\n    Line Producer\n    Prakash Pange\n\n    Shooting Location(City &amp; Country)\n    Goa\n    India\n\n    Sound\n    Parikshit Lalwani\n    Kunal Mehta\n\n    Music Company\n    T-Series\n","torrent":{"xt":"urn:btih:dc81cc751e9aa515d1f15dd069efebf31e2b0980","amp;dn":"Chashme+Baddoor+2013+Audio+Cleaned+DVDScr+XviD+1CD","amp;tr":["udp%3A%2F%2Ftracker.openbittorrent.com%3A80","udp%3A%2F%2Fopen.demonii.com%3A1337","udp%3A%2F%2Ftracker.coppersurfer.tk%3A6969","udp%3A%2F%2Fexodus.desync.com%3A6969"],"infoHash":"dc81cc751e9aa515d1f15dd069efebf31e2b0980","infoHashBuffer":{"type":"Buffer","data":[220,129,204,117,30,154,165,21,209,241,93,208,105,239,235,243,30,43,9,128]},"announce":[],"urlList":[]}}